<?xml version="1.0" encoding="utf-8" standalone="no"?>
<!DOCTYPE svg PUBLIC "-//W3C//DTD SVG 1.1//EN"
  "http://www.w3.org/Graphics/SVG/1.1/DTD/svg11.dtd">
<svg xmlns:xlink="http://www.w3.org/1999/xlink" width="532.8pt" height="187.2pt" viewBox="0 0 532.8 187.2" xmlns="http://www.w3.org/2000/svg" version="1.1">
 <metadata>
  <rdf:RDF xmlns:dc="http://purl.org/dc/elements/1.1/" xmlns:cc="http://creativecommons.org/ns#" xmlns:rdf="http://www.w3.org/1999/02/22-rdf-syntax-ns#">
   <cc:Work>
    <dc:type rdf:resource="http://purl.org/dc/dcmitype/StillImage"/>
    <dc:format>image/svg+xml</dc:format>
    <dc:creator>
     <cc:Agent>
      <dc:title>Matplotlib v3.10.9, https://matplotlib.org/</dc:title>
     </cc:Agent>
    </dc:creator>
   </cc:Work>
  </rdf:RDF>
 </metadata>
 <defs>
  <style type="text/css">*{stroke-linejoin: round; stroke-linecap: butt}</style>
 </defs>
 <g id="figure_1">
  <g id="patch_1">
   <path d="M 0 187.2 
L 532.8 187.2 
L 532.8 0 
L 0 0 
z
" style="fill: #ffffff"/>
  </g>
  <g id="axes_1">
   <g id="patch_2">
    <path d="M 9.72 149.92 
L 523.08 149.92 
L 523.08 24.36 
L 9.72 24.36 
z
" style="fill: #ffffff"/>
   </g>
   <g id="line2d_1">
    <path d="M 61.056 87.14 
L 163.728 87.14 
L 266.4 87.14 
L 369.072 87.14 
L 471.744 87.14 
" clip-path="url(#pf57319b518)" style="fill: none; stroke: #6b7280; stroke-linecap: square"/>
   </g>
   <g id="matplotlib.axis_1">
    <g id="xtick_1">
     <g id="line2d_2">
      <defs>
       <path id="mda7382ed1f" d="M 0 0 
L 0 3.5 
" style="stroke: #000000; stroke-width: 0.8"/>
      </defs>
      <g>
       <use xlink:href="#mda7382ed1f" x="61.056" y="149.92" style="stroke: #000000; stroke-width: 0.8"/>
      </g>
     </g>
     <g id="text_1">
      <!-- 1 -->
      <g transform="translate(58.511 162.99875) scale(0.08 -0.08)">
       <defs>
        <path id="DejaVuSans-31" d="M 794 531 
L 1825 531 
L 1825 4091 
L 703 3866 
L 703 4441 
L 1819 4666 
L 2450 4666 
L 2450 531 
L 3481 531 
L 3481 0 
L 794 0 
L 794 531 
z
" transform="scale(0.015625)"/>
       </defs>
       <use xlink:href="#DejaVuSans-31"/>
      </g>
     </g>
    </g>
    <g id="xtick_2">
     <g id="line2d_3">
      <g>
       <use xlink:href="#mda7382ed1f" x="163.728" y="149.92" style="stroke: #000000; stroke-width: 0.8"/>
      </g>
     </g>
     <g id="text_2">
      <!-- 2 -->
      <g transform="translate(161.183 162.99875) scale(0.08 -0.08)">
       <defs>
        <path id="DejaVuSans-32" d="M 1228 531 
L 3431 531 
L 3431 0 
L 469 0 
L 469 531 
Q 828 903 1448 1529 
Q 2069 2156 2228 2338 
Q 2531 2678 2651 2914 
Q 2772 3150 2772 3378 
Q 2772 3750 2511 3984 
Q 2250 4219 1831 4219 
Q 1534 4219 1204 4116 
Q 875 4013 500 3803 
L 500 4441 
Q 881 4594 1212 4672 
Q 1544 4750 1819 4750 
Q 2544 4750 2975 4387 
Q 3406 4025 3406 3419 
Q 3406 3131 3298 2873 
Q 3191 2616 2906 2266 
Q 2828 2175 2409 1742 
Q 1991 1309 1228 531 
z
" transform="scale(0.015625)"/>
       </defs>
       <use xlink:href="#DejaVuSans-32"/>
      </g>
     </g>
    </g>
    <g id="xtick_3">
     <g id="line2d_4">
      <g>
       <use xlink:href="#mda7382ed1f" x="266.4" y="149.92" style="stroke: #000000; stroke-width: 0.8"/>
      </g>
     </g>
     <g id="text_3">
      <!-- 3 -->
      <g transform="translate(263.855 162.99875) scale(0.08 -0.08)">
       <defs>
        <path id="DejaVuSans-33" d="M 2597 2516 
Q 3050 2419 3304 2112 
Q 3559 1806 3559 1356 
Q 3559 666 3084 287 
Q 2609 -91 1734 -91 
Q 1441 -91 1130 -33 
Q 819 25 488 141 
L 488 750 
Q 750 597 1062 519 
Q 1375 441 1716 441 
Q 2309 441 2620 675 
Q 2931 909 2931 1356 
Q 2931 1769 2642 2001 
Q 2353 2234 1838 2234 
L 1294 2234 
L 1294 2753 
L 1863 2753 
Q 2328 2753 2575 2939 
Q 2822 3125 2822 3475 
Q 2822 3834 2567 4026 
Q 2313 4219 1838 4219 
Q 1578 4219 1281 4162 
Q 984 4106 628 3988 
L 628 4550 
Q 988 4650 1302 4700 
Q 1616 4750 1894 4750 
Q 2613 4750 3031 4423 
Q 3450 4097 3450 3541 
Q 3450 3153 3228 2886 
Q 3006 2619 2597 2516 
z
" transform="scale(0.015625)"/>
       </defs>
       <use xlink:href="#DejaVuSans-33"/>
      </g>
     </g>
    </g>
    <g id="xtick_4">
     <g id="line2d_5">
      <g>
       <use xlink:href="#mda7382ed1f" x="369.072" y="149.92" style="stroke: #000000; stroke-width: 0.8"/>
      </g>
     </g>
     <g id="text_4">
      <!-- 4 -->
      <g transform="translate(366.527 162.99875) scale(0.08 -0.08)">
       <defs>
        <path id="DejaVuSans-34" d="M 2419 4116 
L 825 1625 
L 2419 1625 
L 2419 4116 
z
M 2253 4666 
L 3047 4666 
L 3047 1625 
L 3713 1625 
L 3713 1100 
L 3047 1100 
L 3047 0 
L 2419 0 
L 2419 1100 
L 313 1100 
L 313 1709 
L 2253 4666 
z
" transform="scale(0.015625)"/>
       </defs>
       <use xlink:href="#DejaVuSans-34"/>
      </g>
     </g>
    </g>
    <g id="xtick_5">
     <g id="line2d_6">
      <g>
       <use xlink:href="#mda7382ed1f" x="471.744" y="149.92" style="stroke: #000000; stroke-width: 0.8"/>
      </g>
     </g>
     <g id="text_5">
      <!-- 5 -->
      <g transform="translate(469.199 162.99875) scale(0.08 -0.08)">
       <defs>
        <path id="DejaVuSans-35" d="M 691 4666 
L 3169 4666 
L 3169 4134 
L 1269 4134 
L 1269 2991 
Q 1406 3038 1543 3061 
Q 1681 3084 1819 3084 
Q 2600 3084 3056 2656 
Q 3513 2228 3513 1497 
Q 3513 744 3044 326 
Q 2575 -91 1722 -91 
Q 1428 -91 1123 -41 
Q 819 9 494 109 
L 494 744 
Q 775 591 1075 516 
Q 1375 441 1709 441 
Q 2250 441 2565 725 
Q 2881 1009 2881 1497 
Q 2881 1984 2565 2268 
Q 2250 2553 1709 2553 
Q 1456 2553 1204 2497 
Q 953 2441 691 2322 
L 691 4666 
z
" transform="scale(0.015625)"/>
       </defs>
       <use xlink:href="#DejaVuSans-35"/>
      </g>
     </g>
    </g>
    <g id="text_6">
     <!-- Chronological step -->
     <g transform="translate(224.541563 175.501094) scale(0.09 -0.09)">
      <defs>
       <path id="DejaVuSans-43" d="M 4122 4306 
L 4122 3641 
Q 3803 3938 3442 4084 
Q 3081 4231 2675 4231 
Q 1875 4231 1450 3742 
Q 1025 3253 1025 2328 
Q 1025 1406 1450 917 
Q 1875 428 2675 428 
Q 3081 428 3442 575 
Q 3803 722 4122 1019 
L 4122 359 
Q 3791 134 3420 21 
Q 3050 -91 2638 -91 
Q 1578 -91 968 557 
Q 359 1206 359 2328 
Q 359 3453 968 4101 
Q 1578 4750 2638 4750 
Q 3056 4750 3426 4639 
Q 3797 4528 4122 4306 
z
" transform="scale(0.015625)"/>
       <path id="DejaVuSans-68" d="M 3513 2113 
L 3513 0 
L 2938 0 
L 2938 2094 
Q 2938 2591 2744 2837 
Q 2550 3084 2163 3084 
Q 1697 3084 1428 2787 
Q 1159 2491 1159 1978 
L 1159 0 
L 581 0 
L 581 4863 
L 1159 4863 
L 1159 2956 
Q 1366 3272 1645 3428 
Q 1925 3584 2291 3584 
Q 2894 3584 3203 3211 
Q 3513 2838 3513 2113 
z
" transform="scale(0.015625)"/>
       <path id="DejaVuSans-72" d="M 2631 2963 
Q 2534 3019 2420 3045 
Q 2306 3072 2169 3072 
Q 1681 3072 1420 2755 
Q 1159 2438 1159 1844 
L 1159 0 
L 581 0 
L 581 3500 
L 1159 3500 
L 1159 2956 
Q 1341 3275 1631 3429 
Q 1922 3584 2338 3584 
Q 2397 3584 2469 3576 
Q 2541 3569 2628 3553 
L 2631 2963 
z
" transform="scale(0.015625)"/>
       <path id="DejaVuSans-6f" d="M 1959 3097 
Q 1497 3097 1228 2736 
Q 959 2375 959 1747 
Q 959 1119 1226 758 
Q 1494 397 1959 397 
Q 2419 397 2687 759 
Q 2956 1122 2956 1747 
Q 2956 2369 2687 2733 
Q 2419 3097 1959 3097 
z
M 1959 3584 
Q 2709 3584 3137 3096 
Q 3566 2609 3566 1747 
Q 3566 888 3137 398 
Q 2709 -91 1959 -91 
Q 1206 -91 779 398 
Q 353 888 353 1747 
Q 353 2609 779 3096 
Q 1206 3584 1959 3584 
z
" transform="scale(0.015625)"/>
       <path id="DejaVuSans-6e" d="M 3513 2113 
L 3513 0 
L 2938 0 
L 2938 2094 
Q 2938 2591 2744 2837 
Q 2550 3084 2163 3084 
Q 1697 3084 1428 2787 
Q 1159 2491 1159 1978 
L 1159 0 
L 581 0 
L 581 3500 
L 1159 3500 
L 1159 2956 
Q 1366 3272 1645 3428 
Q 1925 3584 2291 3584 
Q 2894 3584 3203 3211 
Q 3513 2838 3513 2113 
z
" transform="scale(0.015625)"/>
       <path id="DejaVuSans-6c" d="M 603 4863 
L 1178 4863 
L 1178 0 
L 603 0 
L 603 4863 
z
" transform="scale(0.015625)"/>
       <path id="DejaVuSans-67" d="M 2906 1791 
Q 2906 2416 2648 2759 
Q 2391 3103 1925 3103 
Q 1463 3103 1205 2759 
Q 947 2416 947 1791 
Q 947 1169 1205 825 
Q 1463 481 1925 481 
Q 2391 481 2648 825 
Q 2906 1169 2906 1791 
z
M 3481 434 
Q 3481 -459 3084 -895 
Q 2688 -1331 1869 -1331 
Q 1566 -1331 1297 -1286 
Q 1028 -1241 775 -1147 
L 775 -588 
Q 1028 -725 1275 -790 
Q 1522 -856 1778 -856 
Q 2344 -856 2625 -561 
Q 2906 -266 2906 331 
L 2906 616 
Q 2728 306 2450 153 
Q 2172 0 1784 0 
Q 1141 0 747 490 
Q 353 981 353 1791 
Q 353 2603 747 3093 
Q 1141 3584 1784 3584 
Q 2172 3584 2450 3431 
Q 2728 3278 2906 2969 
L 2906 3500 
L 3481 3500 
L 3481 434 
z
" transform="scale(0.015625)"/>
       <path id="DejaVuSans-69" d="M 603 3500 
L 1178 3500 
L 1178 0 
L 603 0 
L 603 3500 
z
M 603 4863 
L 1178 4863 
L 1178 4134 
L 603 4134 
L 603 4863 
z
" transform="scale(0.015625)"/>
       <path id="DejaVuSans-63" d="M 3122 3366 
L 3122 2828 
Q 2878 2963 2633 3030 
Q 2388 3097 2138 3097 
Q 1578 3097 1268 2742 
Q 959 2388 959 1747 
Q 959 1106 1268 751 
Q 1578 397 2138 397 
Q 2388 397 2633 464 
Q 2878 531 3122 666 
L 3122 134 
Q 2881 22 2623 -34 
Q 2366 -91 2075 -91 
Q 1284 -91 818 406 
Q 353 903 353 1747 
Q 353 2603 823 3093 
Q 1294 3584 2113 3584 
Q 2378 3584 2631 3529 
Q 2884 3475 3122 3366 
z
" transform="scale(0.015625)"/>
       <path id="DejaVuSans-61" d="M 2194 1759 
Q 1497 1759 1228 1600 
Q 959 1441 959 1056 
Q 959 750 1161 570 
Q 1363 391 1709 391 
Q 2188 391 2477 730 
Q 2766 1069 2766 1631 
L 2766 1759 
L 2194 1759 
z
M 3341 1997 
L 3341 0 
L 2766 0 
L 2766 531 
Q 2569 213 2275 61 
Q 1981 -91 1556 -91 
Q 1019 -91 701 211 
Q 384 513 384 1019 
Q 384 1609 779 1909 
Q 1175 2209 1959 2209 
L 2766 2209 
L 2766 2266 
Q 2766 2663 2505 2880 
Q 2244 3097 1772 3097 
Q 1472 3097 1187 3025 
Q 903 2953 641 2809 
L 641 3341 
Q 956 3463 1253 3523 
Q 1550 3584 1831 3584 
Q 2591 3584 2966 3190 
Q 3341 2797 3341 1997 
z
" transform="scale(0.015625)"/>
       <path id="DejaVuSans-20" transform="scale(0.015625)"/>
       <path id="DejaVuSans-73" d="M 2834 3397 
L 2834 2853 
Q 2591 2978 2328 3040 
Q 2066 3103 1784 3103 
Q 1356 3103 1142 2972 
Q 928 2841 928 2578 
Q 928 2378 1081 2264 
Q 1234 2150 1697 2047 
L 1894 2003 
Q 2506 1872 2764 1633 
Q 3022 1394 3022 966 
Q 3022 478 2636 193 
Q 2250 -91 1575 -91 
Q 1294 -91 989 -36 
Q 684 19 347 128 
L 347 722 
Q 666 556 975 473 
Q 1284 391 1588 391 
Q 1994 391 2212 530 
Q 2431 669 2431 922 
Q 2431 1156 2273 1281 
Q 2116 1406 1581 1522 
L 1381 1569 
Q 847 1681 609 1914 
Q 372 2147 372 2553 
Q 372 3047 722 3315 
Q 1072 3584 1716 3584 
Q 2034 3584 2315 3537 
Q 2597 3491 2834 3397 
z
" transform="scale(0.015625)"/>
       <path id="DejaVuSans-74" d="M 1172 4494 
L 1172 3500 
L 2356 3500 
L 2356 3053 
L 1172 3053 
L 1172 1153 
Q 1172 725 1289 603 
Q 1406 481 1766 481 
L 2356 481 
L 2356 0 
L 1766 0 
Q 1100 0 847 248 
Q 594 497 594 1153 
L 594 3053 
L 172 3053 
L 172 3500 
L 594 3500 
L 594 4494 
L 1172 4494 
z
" transform="scale(0.015625)"/>
       <path id="DejaVuSans-65" d="M 3597 1894 
L 3597 1613 
L 953 1613 
Q 991 1019 1311 708 
Q 1631 397 2203 397 
Q 2534 397 2845 478 
Q 3156 559 3463 722 
L 3463 178 
Q 3153 47 2828 -22 
Q 2503 -91 2169 -91 
Q 1331 -91 842 396 
Q 353 884 353 1716 
Q 353 2575 817 3079 
Q 1281 3584 2069 3584 
Q 2775 3584 3186 3129 
Q 3597 2675 3597 1894 
z
M 3022 2063 
Q 3016 2534 2758 2815 
Q 2500 3097 2075 3097 
Q 1594 3097 1305 2825 
Q 1016 2553 972 2059 
L 3022 2063 
z
" transform="scale(0.015625)"/>
       <path id="DejaVuSans-70" d="M 1159 525 
L 1159 -1331 
L 581 -1331 
L 581 3500 
L 1159 3500 
L 1159 2969 
Q 1341 3281 1617 3432 
Q 1894 3584 2278 3584 
Q 2916 3584 3314 3078 
Q 3713 2572 3713 1747 
Q 3713 922 3314 415 
Q 2916 -91 2278 -91 
Q 1894 -91 1617 61 
Q 1341 213 1159 525 
z
M 3116 1747 
Q 3116 2381 2855 2742 
Q 2594 3103 2138 3103 
Q 1681 3103 1420 2742 
Q 1159 2381 1159 1747 
Q 1159 1113 1420 752 
Q 1681 391 2138 391 
Q 2594 391 2855 752 
Q 3116 1113 3116 1747 
z
" transform="scale(0.015625)"/>
      </defs>
      <use xlink:href="#DejaVuSans-43"/>
      <use xlink:href="#DejaVuSans-68" transform="translate(69.824219 0)"/>
      <use xlink:href="#DejaVuSans-72" transform="translate(133.203125 0)"/>
      <use xlink:href="#DejaVuSans-6f" transform="translate(172.066406 0)"/>
      <use xlink:href="#DejaVuSans-6e" transform="translate(233.248047 0)"/>
      <use xlink:href="#DejaVuSans-6f" transform="translate(296.626953 0)"/>
      <use xlink:href="#DejaVuSans-6c" transform="translate(357.808594 0)"/>
      <use xlink:href="#DejaVuSans-6f" transform="translate(385.591797 0)"/>
      <use xlink:href="#DejaVuSans-67" transform="translate(446.773438 0)"/>
      <use xlink:href="#DejaVuSans-69" transform="translate(510.25 0)"/>
      <use xlink:href="#DejaVuSans-63" transform="translate(538.033203 0)"/>
      <use xlink:href="#DejaVuSans-61" transform="translate(593.013672 0)"/>
      <use xlink:href="#DejaVuSans-6c" transform="translate(654.292969 0)"/>
      <use xlink:href="#DejaVuSans-20" transform="translate(682.076172 0)"/>
      <use xlink:href="#DejaVuSans-73" transform="translate(713.863281 0)"/>
      <use xlink:href="#DejaVuSans-74" transform="translate(765.962891 0)"/>
      <use xlink:href="#DejaVuSans-65" transform="translate(805.171875 0)"/>
      <use xlink:href="#DejaVuSans-70" transform="translate(866.695312 0)"/>
     </g>
    </g>
   </g>
   <g id="matplotlib.axis_2"/>
   <g id="PathCollection_1">
    <defs>
     <path id="mc0b2744760" d="M 0 4.1833 
C 1.109424 4.1833 2.173559 3.742521 2.95804 2.95804 
C 3.742521 2.173559 4.1833 1.109424 4.1833 0 
C 4.1833 -1.109424 3.742521 -2.173559 2.95804 -2.95804 
C 2.173559 -3.742521 1.109424 -4.1833 0 -4.1833 
C -1.109424 -4.1833 -2.173559 -3.742521 -2.95804 -2.95804 
C -3.742521 -2.173559 -4.1833 -1.109424 -4.1833 0 
C -4.1833 1.109424 -3.742521 2.173559 -2.95804 2.95804 
C -2.173559 3.742521 -1.109424 4.1833 0 4.1833 
z
" style="stroke: #7b4f2f"/>
    </defs>
    <g clip-path="url(#pf57319b518)">
     <use xlink:href="#mc0b2744760" x="61.056" y="87.14" style="fill: #7b4f2f; stroke: #7b4f2f"/>
     <use xlink:href="#mc0b2744760" x="163.728" y="87.14" style="fill: #7b4f2f; stroke: #7b4f2f"/>
     <use xlink:href="#mc0b2744760" x="266.4" y="87.14" style="fill: #7b4f2f; stroke: #7b4f2f"/>
     <use xlink:href="#mc0b2744760" x="369.072" y="87.14" style="fill: #7b4f2f; stroke: #7b4f2f"/>
     <use xlink:href="#mc0b2744760" x="471.744" y="87.14" style="fill: #7b4f2f; stroke: #7b4f2f"/>
    </g>
   </g>
   <g id="patch_3">
    <path d="M 9.72 149.92 
L 523.08 149.92 
" style="fill: none; stroke: #000000; stroke-width: 0.8; stroke-linejoin: miter; stroke-linecap: square"/>
   </g>
   <g id="text_7">
    <!-- prompt id -->
    <g transform="translate(41.589125 71.126536) scale(0.08 -0.08)">
     <defs>
      <path id="DejaVuSans-6d" d="M 3328 2828 
Q 3544 3216 3844 3400 
Q 4144 3584 4550 3584 
Q 5097 3584 5394 3201 
Q 5691 2819 5691 2113 
L 5691 0 
L 5113 0 
L 5113 2094 
Q 5113 2597 4934 2840 
Q 4756 3084 4391 3084 
Q 3944 3084 3684 2787 
Q 3425 2491 3425 1978 
L 3425 0 
L 2847 0 
L 2847 2094 
Q 2847 2600 2669 2842 
Q 2491 3084 2119 3084 
Q 1678 3084 1418 2786 
Q 1159 2488 1159 1978 
L 1159 0 
L 581 0 
L 581 3500 
L 1159 3500 
L 1159 2956 
Q 1356 3278 1631 3431 
Q 1906 3584 2284 3584 
Q 2666 3584 2933 3390 
Q 3200 3197 3328 2828 
z
" transform="scale(0.015625)"/>
      <path id="DejaVuSans-64" d="M 2906 2969 
L 2906 4863 
L 3481 4863 
L 3481 0 
L 2906 0 
L 2906 525 
Q 2725 213 2448 61 
Q 2172 -91 1784 -91 
Q 1150 -91 751 415 
Q 353 922 353 1747 
Q 353 2572 751 3078 
Q 1150 3584 1784 3584 
Q 2172 3584 2448 3432 
Q 2725 3281 2906 2969 
z
M 947 1747 
Q 947 1113 1208 752 
Q 1469 391 1925 391 
Q 2381 391 2643 752 
Q 2906 1113 2906 1747 
Q 2906 2381 2643 2742 
Q 2381 3103 1925 3103 
Q 1469 3103 1208 2742 
Q 947 2381 947 1747 
z
" transform="scale(0.015625)"/>
     </defs>
     <use xlink:href="#DejaVuSans-70"/>
     <use xlink:href="#DejaVuSans-72" transform="translate(63.476562 0)"/>
     <use xlink:href="#DejaVuSans-6f" transform="translate(102.339844 0)"/>
     <use xlink:href="#DejaVuSans-6d" transform="translate(163.521484 0)"/>
     <use xlink:href="#DejaVuSans-70" transform="translate(260.933594 0)"/>
     <use xlink:href="#DejaVuSans-74" transform="translate(324.410156 0)"/>
     <use xlink:href="#DejaVuSans-20" transform="translate(363.619141 0)"/>
     <use xlink:href="#DejaVuSans-69" transform="translate(395.40625 0)"/>
     <use xlink:href="#DejaVuSans-64" transform="translate(423.189453 0)"/>
    </g>
   </g>
   <g id="text_8">
    <!-- lab-a- -->
    <g style="fill: #374151" transform="translate(51.046547 110.396049) scale(0.07 -0.07)">
     <defs>
      <path id="DejaVuSans-62" d="M 3116 1747 
Q 3116 2381 2855 2742 
Q 2594 3103 2138 3103 
Q 1681 3103 1420 2742 
Q 1159 2381 1159 1747 
Q 1159 1113 1420 752 
Q 1681 391 2138 391 
Q 2594 391 2855 752 
Q 3116 1113 3116 1747 
z
M 1159 2969 
Q 1341 3281 1617 3432 
Q 1894 3584 2278 3584 
Q 2916 3584 3314 3078 
Q 3713 2572 3713 1747 
Q 3713 922 3314 415 
Q 2916 -91 2278 -91 
Q 1894 -91 1617 61 
Q 1341 213 1159 525 
L 1159 0 
L 581 0 
L 581 4863 
L 1159 4863 
L 1159 2969 
z
" transform="scale(0.015625)"/>
      <path id="DejaVuSans-2d" d="M 313 2009 
L 1997 2009 
L 1997 1497 
L 313 1497 
L 313 2009 
z
" transform="scale(0.015625)"/>
     </defs>
     <use xlink:href="#DejaVuSans-6c"/>
     <use xlink:href="#DejaVuSans-61" transform="translate(27.783203 0)"/>
     <use xlink:href="#DejaVuSans-62" transform="translate(89.0625 0)"/>
     <use xlink:href="#DejaVuSans-2d" transform="translate(152.539062 0)"/>
     <use xlink:href="#DejaVuSans-61" transform="translate(188.623047 0)"/>
     <use xlink:href="#DejaVuSans-2d" transform="translate(249.902344 0)"/>
    </g>
    <!-- orientamento-01 -->
    <g style="fill: #374151" transform="translate(31.537875 118.234518) scale(0.07 -0.07)">
     <defs>
      <path id="DejaVuSans-30" d="M 2034 4250 
Q 1547 4250 1301 3770 
Q 1056 3291 1056 2328 
Q 1056 1369 1301 889 
Q 1547 409 2034 409 
Q 2525 409 2770 889 
Q 3016 1369 3016 2328 
Q 3016 3291 2770 3770 
Q 2525 4250 2034 4250 
z
M 2034 4750 
Q 2819 4750 3233 4129 
Q 3647 3509 3647 2328 
Q 3647 1150 3233 529 
Q 2819 -91 2034 -91 
Q 1250 -91 836 529 
Q 422 1150 422 2328 
Q 422 3509 836 4129 
Q 1250 4750 2034 4750 
z
" transform="scale(0.015625)"/>
     </defs>
     <use xlink:href="#DejaVuSans-6f"/>
     <use xlink:href="#DejaVuSans-72" transform="translate(61.181641 0)"/>
     <use xlink:href="#DejaVuSans-69" transform="translate(102.294922 0)"/>
     <use xlink:href="#DejaVuSans-65" transform="translate(130.078125 0)"/>
     <use xlink:href="#DejaVuSans-6e" transform="translate(191.601562 0)"/>
     <use xlink:href="#DejaVuSans-74" transform="translate(254.980469 0)"/>
     <use xlink:href="#DejaVuSans-61" transform="translate(294.189453 0)"/>
     <use xlink:href="#DejaVuSans-6d" transform="translate(355.46875 0)"/>
     <use xlink:href="#DejaVuSans-65" transform="translate(452.880859 0)"/>
     <use xlink:href="#DejaVuSans-6e" transform="translate(514.404297 0)"/>
     <use xlink:href="#DejaVuSans-74" transform="translate(577.783203 0)"/>
     <use xlink:href="#DejaVuSans-6f" transform="translate(616.992188 0)"/>
     <use xlink:href="#DejaVuSans-2d" transform="translate(680.048828 0)"/>
     <use xlink:href="#DejaVuSans-30" transform="translate(716.132812 0)"/>
     <use xlink:href="#DejaVuSans-31" transform="translate(779.755859 0)"/>
    </g>
   </g>
   <g id="text_9">
    <!-- prompt -->
    <g transform="translate(149.183 62.168286) scale(0.08 -0.08)">
     <use xlink:href="#DejaVuSans-70"/>
     <use xlink:href="#DejaVuSans-72" transform="translate(63.476562 0)"/>
     <use xlink:href="#DejaVuSans-6f" transform="translate(102.339844 0)"/>
     <use xlink:href="#DejaVuSans-6d" transform="translate(163.521484 0)"/>
     <use xlink:href="#DejaVuSans-70" transform="translate(260.933594 0)"/>
     <use xlink:href="#DejaVuSans-74" transform="translate(324.410156 0)"/>
    </g>
    <!-- payload -->
    <g transform="translate(147.8205 71.126536) scale(0.08 -0.08)">
     <defs>
      <path id="DejaVuSans-79" d="M 2059 -325 
Q 1816 -950 1584 -1140 
Q 1353 -1331 966 -1331 
L 506 -1331 
L 506 -850 
L 844 -850 
Q 1081 -850 1212 -737 
Q 1344 -625 1503 -206 
L 1606 56 
L 191 3500 
L 800 3500 
L 1894 763 
L 2988 3500 
L 3597 3500 
L 2059 -325 
z
" transform="scale(0.015625)"/>
     </defs>
     <use xlink:href="#DejaVuSans-70"/>
     <use xlink:href="#DejaVuSans-61" transform="translate(63.476562 0)"/>
     <use xlink:href="#DejaVuSans-79" transform="translate(124.755859 0)"/>
     <use xlink:href="#DejaVuSans-6c" transform="translate(183.935547 0)"/>
     <use xlink:href="#DejaVuSans-6f" transform="translate(211.71875 0)"/>
     <use xlink:href="#DejaVuSans-61" transform="translate(272.900391 0)"/>
     <use xlink:href="#DejaVuSans-64" transform="translate(334.179688 0)"/>
    </g>
   </g>
   <g id="text_10">
    <!-- assets/prompt.json -->
    <g style="fill: #374151" transform="translate(130.414016 110.396049) scale(0.07 -0.07)">
     <defs>
      <path id="DejaVuSans-2f" d="M 1625 4666 
L 2156 4666 
L 531 -594 
L 0 -594 
L 1625 4666 
z
" transform="scale(0.015625)"/>
      <path id="DejaVuSans-2e" d="M 684 794 
L 1344 794 
L 1344 0 
L 684 0 
L 684 794 
z
" transform="scale(0.015625)"/>
      <path id="DejaVuSans-6a" d="M 603 3500 
L 1178 3500 
L 1178 -63 
Q 1178 -731 923 -1031 
Q 669 -1331 103 -1331 
L -116 -1331 
L -116 -844 
L 38 -844 
Q 366 -844 484 -692 
Q 603 -541 603 -63 
L 603 3500 
z
M 603 4863 
L 1178 4863 
L 1178 4134 
L 603 4134 
L 603 4863 
z
" transform="scale(0.015625)"/>
     </defs>
     <use xlink:href="#DejaVuSans-61"/>
     <use xlink:href="#DejaVuSans-73" transform="translate(61.279297 0)"/>
     <use xlink:href="#DejaVuSans-73" transform="translate(113.378906 0)"/>
     <use xlink:href="#DejaVuSans-65" transform="translate(165.478516 0)"/>
     <use xlink:href="#DejaVuSans-74" transform="translate(227.001953 0)"/>
     <use xlink:href="#DejaVuSans-73" transform="translate(266.210938 0)"/>
     <use xlink:href="#DejaVuSans-2f" transform="translate(318.310547 0)"/>
     <use xlink:href="#DejaVuSans-70" transform="translate(352.001953 0)"/>
     <use xlink:href="#DejaVuSans-72" transform="translate(415.478516 0)"/>
     <use xlink:href="#DejaVuSans-6f" transform="translate(454.341797 0)"/>
     <use xlink:href="#DejaVuSans-6d" transform="translate(515.523438 0)"/>
     <use xlink:href="#DejaVuSans-70" transform="translate(612.935547 0)"/>
     <use xlink:href="#DejaVuSans-74" transform="translate(676.412109 0)"/>
     <use xlink:href="#DejaVuSans-2e" transform="translate(715.621094 0)"/>
     <use xlink:href="#DejaVuSans-6a" transform="translate(747.408203 0)"/>
     <use xlink:href="#DejaVuSans-73" transform="translate(775.191406 0)"/>
     <use xlink:href="#DejaVuSans-6f" transform="translate(827.291016 0)"/>
     <use xlink:href="#DejaVuSans-6e" transform="translate(888.472656 0)"/>
    </g>
   </g>
   <g id="text_11">
    <!-- prompt text -->
    <g transform="translate(242.68875 71.126536) scale(0.08 -0.08)">
     <defs>
      <path id="DejaVuSans-78" d="M 3513 3500 
L 2247 1797 
L 3578 0 
L 2900 0 
L 1881 1375 
L 863 0 
L 184 0 
L 1544 1831 
L 300 3500 
L 978 3500 
L 1906 2253 
L 2834 3500 
L 3513 3500 
z
" transform="scale(0.015625)"/>
     </defs>
     <use xlink:href="#DejaVuSans-70"/>
     <use xlink:href="#DejaVuSans-72" transform="translate(63.476562 0)"/>
     <use xlink:href="#DejaVuSans-6f" transform="translate(102.339844 0)"/>
     <use xlink:href="#DejaVuSans-6d" transform="translate(163.521484 0)"/>
     <use xlink:href="#DejaVuSans-70" transform="translate(260.933594 0)"/>
     <use xlink:href="#DejaVuSans-74" transform="translate(324.410156 0)"/>
     <use xlink:href="#DejaVuSans-20" transform="translate(363.619141 0)"/>
     <use xlink:href="#DejaVuSans-74" transform="translate(395.40625 0)"/>
     <use xlink:href="#DejaVuSans-65" transform="translate(434.615234 0)"/>
     <use xlink:href="#DejaVuSans-78" transform="translate(494.388672 0)"/>
     <use xlink:href="#DejaVuSans-74" transform="translate(553.568359 0)"/>
    </g>
   </g>
   <g id="text_12">
    <!-- assets/prompt.txt -->
    <g style="fill: #374151" transform="translate(235.425547 110.396049) scale(0.07 -0.07)">
     <use xlink:href="#DejaVuSans-61"/>
     <use xlink:href="#DejaVuSans-73" transform="translate(61.279297 0)"/>
     <use xlink:href="#DejaVuSans-73" transform="translate(113.378906 0)"/>
     <use xlink:href="#DejaVuSans-65" transform="translate(165.478516 0)"/>
     <use xlink:href="#DejaVuSans-74" transform="translate(227.001953 0)"/>
     <use xlink:href="#DejaVuSans-73" transform="translate(266.210938 0)"/>
     <use xlink:href="#DejaVuSans-2f" transform="translate(318.310547 0)"/>
     <use xlink:href="#DejaVuSans-70" transform="translate(352.001953 0)"/>
     <use xlink:href="#DejaVuSans-72" transform="translate(415.478516 0)"/>
     <use xlink:href="#DejaVuSans-6f" transform="translate(454.341797 0)"/>
     <use xlink:href="#DejaVuSans-6d" transform="translate(515.523438 0)"/>
     <use xlink:href="#DejaVuSans-70" transform="translate(612.935547 0)"/>
     <use xlink:href="#DejaVuSans-74" transform="translate(676.412109 0)"/>
     <use xlink:href="#DejaVuSans-2e" transform="translate(715.621094 0)"/>
     <use xlink:href="#DejaVuSans-74" transform="translate(747.408203 0)"/>
     <use xlink:href="#DejaVuSans-78" transform="translate(786.617188 0)"/>
     <use xlink:href="#DejaVuSans-74" transform="translate(845.796875 0)"/>
    </g>
   </g>
   <g id="text_13">
    <!-- command -->
    <g transform="translate(349.107 71.126536) scale(0.08 -0.08)">
     <use xlink:href="#DejaVuSans-63"/>
     <use xlink:href="#DejaVuSans-6f" transform="translate(54.980469 0)"/>
     <use xlink:href="#DejaVuSans-6d" transform="translate(116.162109 0)"/>
     <use xlink:href="#DejaVuSans-6d" transform="translate(213.574219 0)"/>
     <use xlink:href="#DejaVuSans-61" transform="translate(310.986328 0)"/>
     <use xlink:href="#DejaVuSans-6e" transform="translate(372.265625 0)"/>
     <use xlink:href="#DejaVuSans-64" transform="translate(435.644531 0)"/>
    </g>
   </g>
   <g id="text_14">
    <!-- transcript.md -->
    <g style="fill: #374151" transform="translate(345.401609 110.396049) scale(0.07 -0.07)">
     <use xlink:href="#DejaVuSans-74"/>
     <use xlink:href="#DejaVuSans-72" transform="translate(39.208984 0)"/>
     <use xlink:href="#DejaVuSans-61" transform="translate(80.322266 0)"/>
     <use xlink:href="#DejaVuSans-6e" transform="translate(141.601562 0)"/>
     <use xlink:href="#DejaVuSans-73" transform="translate(204.980469 0)"/>
     <use xlink:href="#DejaVuSans-63" transform="translate(257.080078 0)"/>
     <use xlink:href="#DejaVuSans-72" transform="translate(312.060547 0)"/>
     <use xlink:href="#DejaVuSans-69" transform="translate(353.173828 0)"/>
     <use xlink:href="#DejaVuSans-70" transform="translate(380.957031 0)"/>
     <use xlink:href="#DejaVuSans-74" transform="translate(444.433594 0)"/>
     <use xlink:href="#DejaVuSans-2e" transform="translate(483.642578 0)"/>
     <use xlink:href="#DejaVuSans-6d" transform="translate(515.429688 0)"/>
     <use xlink:href="#DejaVuSans-64" transform="translate(612.841797 0)"/>
    </g>
   </g>
   <g id="text_15">
    <!-- command error -->
    <g transform="translate(440.825875 71.126536) scale(0.08 -0.08)">
     <use xlink:href="#DejaVuSans-63"/>
     <use xlink:href="#DejaVuSans-6f" transform="translate(54.980469 0)"/>
     <use xlink:href="#DejaVuSans-6d" transform="translate(116.162109 0)"/>
     <use xlink:href="#DejaVuSans-6d" transform="translate(213.574219 0)"/>
     <use xlink:href="#DejaVuSans-61" transform="translate(310.986328 0)"/>
     <use xlink:href="#DejaVuSans-6e" transform="translate(372.265625 0)"/>
     <use xlink:href="#DejaVuSans-64" transform="translate(435.644531 0)"/>
     <use xlink:href="#DejaVuSans-20" transform="translate(499.121094 0)"/>
     <use xlink:href="#DejaVuSans-65" transform="translate(530.908203 0)"/>
     <use xlink:href="#DejaVuSans-72" transform="translate(592.431641 0)"/>
     <use xlink:href="#DejaVuSans-72" transform="translate(631.794922 0)"/>
     <use xlink:href="#DejaVuSans-6f" transform="translate(670.658203 0)"/>
     <use xlink:href="#DejaVuSans-72" transform="translate(731.839844 0)"/>
    </g>
   </g>
   <g id="text_16">
    <!-- assets/command.std -->
    <g style="fill: #374151" transform="translate(435.425484 110.396049) scale(0.07 -0.07)">
     <use xlink:href="#DejaVuSans-61"/>
     <use xlink:href="#DejaVuSans-73" transform="translate(61.279297 0)"/>
     <use xlink:href="#DejaVuSans-73" transform="translate(113.378906 0)"/>
     <use xlink:href="#DejaVuSans-65" transform="translate(165.478516 0)"/>
     <use xlink:href="#DejaVuSans-74" transform="translate(227.001953 0)"/>
     <use xlink:href="#DejaVuSans-73" transform="translate(266.210938 0)"/>
     <use xlink:href="#DejaVuSans-2f" transform="translate(318.310547 0)"/>
     <use xlink:href="#DejaVuSans-63" transform="translate(352.001953 0)"/>
     <use xlink:href="#DejaVuSans-6f" transform="translate(406.982422 0)"/>
     <use xlink:href="#DejaVuSans-6d" transform="translate(468.164062 0)"/>
     <use xlink:href="#DejaVuSans-6d" transform="translate(565.576172 0)"/>
     <use xlink:href="#DejaVuSans-61" transform="translate(662.988281 0)"/>
     <use xlink:href="#DejaVuSans-6e" transform="translate(724.267578 0)"/>
     <use xlink:href="#DejaVuSans-64" transform="translate(787.646484 0)"/>
     <use xlink:href="#DejaVuSans-2e" transform="translate(851.123047 0)"/>
     <use xlink:href="#DejaVuSans-73" transform="translate(882.910156 0)"/>
     <use xlink:href="#DejaVuSans-74" transform="translate(935.009766 0)"/>
     <use xlink:href="#DejaVuSans-64" transform="translate(974.21875 0)"/>
    </g>
    <!-- err.txt -->
    <g style="fill: #374151" transform="translate(461.16525 118.234518) scale(0.07 -0.07)">
     <use xlink:href="#DejaVuSans-65"/>
     <use xlink:href="#DejaVuSans-72" transform="translate(61.523438 0)"/>
     <use xlink:href="#DejaVuSans-72" transform="translate(100.886719 0)"/>
     <use xlink:href="#DejaVuSans-2e" transform="translate(132.875 0)"/>
     <use xlink:href="#DejaVuSans-74" transform="translate(164.662109 0)"/>
     <use xlink:href="#DejaVuSans-78" transform="translate(203.871094 0)"/>
     <use xlink:href="#DejaVuSans-74" transform="translate(263.050781 0)"/>
    </g>
   </g>
   <g id="text_17">
    <!-- Prompt execution sequence -->
    <g transform="translate(189.870938 18.36) scale(0.11 -0.11)">
     <defs>
      <path id="DejaVuSans-50" d="M 1259 4147 
L 1259 2394 
L 2053 2394 
Q 2494 2394 2734 2622 
Q 2975 2850 2975 3272 
Q 2975 3691 2734 3919 
Q 2494 4147 2053 4147 
L 1259 4147 
z
M 628 4666 
L 2053 4666 
Q 2838 4666 3239 4311 
Q 3641 3956 3641 3272 
Q 3641 2581 3239 2228 
Q 2838 1875 2053 1875 
L 1259 1875 
L 1259 0 
L 628 0 
L 628 4666 
z
" transform="scale(0.015625)"/>
      <path id="DejaVuSans-75" d="M 544 1381 
L 544 3500 
L 1119 3500 
L 1119 1403 
Q 1119 906 1312 657 
Q 1506 409 1894 409 
Q 2359 409 2629 706 
Q 2900 1003 2900 1516 
L 2900 3500 
L 3475 3500 
L 3475 0 
L 2900 0 
L 2900 538 
Q 2691 219 2414 64 
Q 2138 -91 1772 -91 
Q 1169 -91 856 284 
Q 544 659 544 1381 
z
M 1991 3584 
L 1991 3584 
z
" transform="scale(0.015625)"/>
      <path id="DejaVuSans-71" d="M 947 1747 
Q 947 1113 1208 752 
Q 1469 391 1925 391 
Q 2381 391 2643 752 
Q 2906 1113 2906 1747 
Q 2906 2381 2643 2742 
Q 2381 3103 1925 3103 
Q 1469 3103 1208 2742 
Q 947 2381 947 1747 
z
M 2906 525 
Q 2725 213 2448 61 
Q 2172 -91 1784 -91 
Q 1150 -91 751 415 
Q 353 922 353 1747 
Q 353 2572 751 3078 
Q 1150 3584 1784 3584 
Q 2172 3584 2448 3432 
Q 2725 3281 2906 2969 
L 2906 3500 
L 3481 3500 
L 3481 -1331 
L 2906 -1331 
L 2906 525 
z
" transform="scale(0.015625)"/>
     </defs>
     <use xlink:href="#DejaVuSans-50"/>
     <use xlink:href="#DejaVuSans-72" transform="translate(58.552734 0)"/>
     <use xlink:href="#DejaVuSans-6f" transform="translate(97.416016 0)"/>
     <use xlink:href="#DejaVuSans-6d" transform="translate(158.597656 0)"/>
     <use xlink:href="#DejaVuSans-70" transform="translate(256.009766 0)"/>
     <use xlink:href="#DejaVuSans-74" transform="translate(319.486328 0)"/>
     <use xlink:href="#DejaVuSans-20" transform="translate(358.695312 0)"/>
     <use xlink:href="#DejaVuSans-65" transform="translate(390.482422 0)"/>
     <use xlink:href="#DejaVuSans-78" transform="translate(450.255859 0)"/>
     <use xlink:href="#DejaVuSans-65" transform="translate(506.310547 0)"/>
     <use xlink:href="#DejaVuSans-63" transform="translate(567.833984 0)"/>
     <use xlink:href="#DejaVuSans-75" transform="translate(622.814453 0)"/>
     <use xlink:href="#DejaVuSans-74" transform="translate(686.193359 0)"/>
     <use xlink:href="#DejaVuSans-69" transform="translate(725.402344 0)"/>
     <use xlink:href="#DejaVuSans-6f" transform="translate(753.185547 0)"/>
     <use xlink:href="#DejaVuSans-6e" transform="translate(814.367188 0)"/>
     <use xlink:href="#DejaVuSans-20" transform="translate(877.746094 0)"/>
     <use xlink:href="#DejaVuSans-73" transform="translate(909.533203 0)"/>
     <use xlink:href="#DejaVuSans-65" transform="translate(961.632812 0)"/>
     <use xlink:href="#DejaVuSans-71" transform="translate(1023.15625 0)"/>
     <use xlink:href="#DejaVuSans-75" transform="translate(1086.632812 0)"/>
     <use xlink:href="#DejaVuSans-65" transform="translate(1150.011719 0)"/>
     <use xlink:href="#DejaVuSans-6e" transform="translate(1211.535156 0)"/>
     <use xlink:href="#DejaVuSans-63" transform="translate(1274.914062 0)"/>
     <use xlink:href="#DejaVuSans-65" transform="translate(1329.894531 0)"/>
    </g>
   </g>
  </g>
 </g>
 <defs>
  <clipPath id="pf57319b518">
   <rect x="9.72" y="24.36" width="513.36" height="125.56"/>
  </clipPath>
 </defs>
</svg>
